<svg xmlns="http://www.w3.org/2000/svg" viewBox="0 0 512 512" role="img" aria-labelledby="title desc">
  <title id="title">IsoAmplar icon option C</title>
  <desc id="desc">An eight-reagent cartridge motif with a compact amplification curve.</desc>
  <defs>
    <linearGradient id="c-bg" x1="52" y1="54" x2="458" y2="458" gradientUnits="userSpaceOnUse">
      <stop offset="0" stop-color="#f8fbff"/>
      <stop offset="1" stop-color="#e8f0f5"/>
    </linearGradient>
    <linearGradient id="c-panel" x1="116" y1="104" x2="398" y2="406" gradientUnits="userSpaceOnUse">
      <stop offset="0" stop-color="#17304e"/>
      <stop offset="1" stop-color="#185f68"/>
    </linearGradient>
    <linearGradient id="c-curve" x1="154" y1="344" x2="372" y2="182" gradientUnits="userSpaceOnUse">
      <stop offset="0" stop-color="#f0b33f"/>
      <stop offset="1" stop-color="#65c4df"/>
    </linearGradient>
    <filter id="c-shadow" x="-20%" y="-20%" width="140%" height="140%">
      <feDropShadow dx="0" dy="10" stdDeviation="18" flood-color="#10213a" flood-opacity="0.16"/>
    </filter>
  </defs>
  <rect x="48" y="48" width="416" height="416" rx="92" fill="url(#c-bg)" filter="url(#c-shadow)"/>
  <rect x="112" y="96" width="288" height="320" rx="44" fill="url(#c-panel)"/>
  <rect x="144" y="128" width="224" height="98" rx="26" fill="#ffffff" opacity="0.94"/>
  <path d="M154 346C181 346 203 346 220 338C241 327 252 302 263 272C277 231 298 201 331 190C346 185 361 184 374 184" fill="none" stroke="url(#c-curve)" stroke-width="24" stroke-linecap="round"/>
  <path d="M154 318H360" fill="none" stroke="#f0b33f" stroke-width="10" stroke-linecap="round" stroke-dasharray="18 16"/>
  <circle cx="168" cy="154" r="16" fill="#0f7895"/>
  <circle cx="226" cy="154" r="16" fill="#1479c9"/>
  <circle cx="284" cy="154" r="16" fill="#64b5d4"/>
  <circle cx="342" cy="154" r="16" fill="#f0b33f"/>
  <circle cx="168" cy="199" r="16" fill="#d8792c"/>
  <circle cx="226" cy="199" r="16" fill="#41a36f"/>
  <circle cx="284" cy="199" r="16" fill="#7d6bc8"/>
  <circle cx="342" cy="199" r="16" fill="#536174"/>
</svg>
